<svg xmlns="http://www.w3.org/2000/svg" fill="#fff" viewBox="0 0 134.4 35.48"><g id="Layer_2" data-name="Layer 2"><g id="Layer_1-2" data-name="Layer 1"><path d="M16.6,2.92a.59.59,0,0,0-.1.2,1.79,1.79,0,0,0-.06.56,3.58,3.58,0,0,0,.16,1.08V18a18.55,18.55,0,0,1-.4,3.92,9.58,9.58,0,0,1-1.38,3.34,6.91,6.91,0,0,1-2.68,2.32,9.63,9.63,0,0,1-4.34.86H7.28a9.41,9.41,0,0,1-3.7-.62,5.81,5.81,0,0,1-2.22-1.58,5.27,5.27,0,0,1-1.08-2.1A9,9,0,0,1,0,22a6.39,6.39,0,0,1,.22-1.7,4.74,4.74,0,0,1,.64-1.44,3.47,3.47,0,0,1,1-1,2.51,2.51,0,0,1,1.36-.38c.48,0,.79.13.92.38a1.68,1.68,0,0,1,.2.78A2.72,2.72,0,0,1,4,20.06a6,6,0,0,1-.78,1c-.28.29-.54.59-.78.88A1.64,1.64,0,0,0,2.08,23,3.06,3.06,0,0,0,3.36,25.8a5.71,5.71,0,0,0,3.2.84A6,6,0,0,0,9.48,26a6.67,6.67,0,0,0,2.06-1.72,7.63,7.63,0,0,0,1.62-4.56l-.6,0a4.64,4.64,0,0,1-2.5-.66A5.94,5.94,0,0,1,8.3,17.4a7.43,7.43,0,0,1-1-2.16,7.55,7.55,0,0,1-.34-2.16v-1.4a9.67,9.67,0,0,1,.2-1.78,17.13,17.13,0,0,1,.56-2.12,16.59,16.59,0,0,1,.88-2.16,13.6,13.6,0,0,1,1.12-1.9A6.47,6.47,0,0,1,11,2.36a2.25,2.25,0,0,1,1.4-.52A2,2,0,0,1,13,2l2.8.2a1.36,1.36,0,0,1,.54.2A.61.61,0,0,1,16.6,2.92Zm-3.44,4.8c.05-.21.11-.41.16-.6a2.49,2.49,0,0,0,.08-.64,1.77,1.77,0,0,0-.26-.94,1,1,0,0,0-.94-.42,1.74,1.74,0,0,0-1.44.72A5.24,5.24,0,0,0,9.9,7.56a11.79,11.79,0,0,0-.42,2.08,16.66,16.66,0,0,0-.12,1.76c0,.35,0,.85.08,1.5a8.76,8.76,0,0,0,.38,1.94,5.51,5.51,0,0,0,.84,1.68,1.73,1.73,0,0,0,1.46.72l.46,0a2.62,2.62,0,0,0,.58-.12Z"/><path d="M25.76,18.12a7.84,7.84,0,0,0-1,1.86c-.25.68-.47,1.39-.66,2.12s-.34,1.47-.46,2.2-.25,1.43-.38,2.1c-.05.16-.26.27-.62.32a6.73,6.73,0,0,1-.78.08,7.52,7.52,0,0,1-1.18-.08,1.07,1.07,0,0,1-.7-.38,2.15,2.15,0,0,1-.36-.92,14.52,14.52,0,0,1-.2-1.66L20,11.88c0-.35.19-.52.56-.52a3.69,3.69,0,0,1,.56.06,6.35,6.35,0,0,1,.76.18,2.68,2.68,0,0,1,.68.3.5.5,0,0,1,.28.42v8.12a.93.93,0,0,0,.12-.32c.19-.48.41-1.07.68-1.78a21.94,21.94,0,0,1,.88-2,9.25,9.25,0,0,1,1-1.64A1.49,1.49,0,0,1,26.6,14a1.58,1.58,0,0,1,1.1.34,2.18,2.18,0,0,1,.58.86,4.06,4.06,0,0,1,.24,1.12c0,.4,0,.79,0,1.16s0,.71-.08,1.32-.08,1.53-.08,2.76a8.34,8.34,0,0,0,.2,1.88c.13.56.4.84.8.84a1.06,1.06,0,0,0,.8-.4,4.56,4.56,0,0,0,.66-1,7.56,7.56,0,0,0,.5-1.28,6.35,6.35,0,0,0,.24-1.28c0-.51.23-.76.6-.76a.48.48,0,0,1,.48.24,1.25,1.25,0,0,1,.12.56v.08a9.62,9.62,0,0,1-.3,1.8,7.72,7.72,0,0,1-.76,1.88,4.74,4.74,0,0,1-1.3,1.48,3.17,3.17,0,0,1-2,.6,2.17,2.17,0,0,1-2.3-1.3,11.42,11.42,0,0,1-.5-3.86Z"/><path d="M41.36,24.36a1.79,1.79,0,0,1-.64,1.48,4.07,4.07,0,0,1-1.46.76,7.87,7.87,0,0,1-1.64.3c-.55,0-.94.06-1.18.06a9.89,9.89,0,0,1-1.38-.12,9.56,9.56,0,0,1-1.6-.38,3.69,3.69,0,0,1-1.32-.74,1.54,1.54,0,0,1-.54-1.2.64.64,0,0,1,.34-.62,1.31,1.31,0,0,1,1.52.14l.88.68a8.61,8.61,0,0,0,1,.68,2.56,2.56,0,0,0,1.28.32,2.39,2.39,0,0,0,.86-.22.79.79,0,0,0,.54-.78,1.62,1.62,0,0,0-.46-1.08,8.85,8.85,0,0,0-1.16-1.08l-1.5-1.16a14.26,14.26,0,0,1-1.5-1.3,6.84,6.84,0,0,1-1.16-1.54,3.72,3.72,0,0,1-.46-1.84,3.33,3.33,0,0,1,.9-2.36,6.7,6.7,0,0,1,2.12-1.52,10.86,10.86,0,0,1,2.5-.8,11.56,11.56,0,0,1,2-.24,3.49,3.49,0,0,1,1.36.28,1.07,1.07,0,0,1,.68,1.08,3.38,3.38,0,0,1-.1.7,3.72,3.72,0,0,1-.32.9,2.94,2.94,0,0,1-.58.78,1.28,1.28,0,0,1-.92.34.51.51,0,0,1-.32-.14l-.36-.32a2.59,2.59,0,0,0-.42-.32.94.94,0,0,0-.5-.14,2.19,2.19,0,0,0-2,.82,3.07,3.07,0,0,0-.56,1.74,2.43,2.43,0,0,0,.94,1.68c.63.59,1.32,1.17,2.08,1.76s1.45,1.17,2.08,1.74A2.36,2.36,0,0,1,41.36,24.36Z"/><path d="M42.24,19.6c0-1.36.07-2.75.12-4.16s.11-2.72.16-3.92c0-.21-.21-.36-.64-.44l-1.44-.24A6.58,6.58,0,0,1,39,10.46a.88.88,0,0,1-.64-.86c0-.35.35-.55,1-.6s1.72-.08,3.08-.08c.1,0,.18-.16.22-.48a12,12,0,0,0,.08-1.22c0-.49,0-1,0-1.58s0-1.09.06-1.58A8.43,8.43,0,0,1,43,2.84c.06-.32.15-.48.26-.48a6.52,6.52,0,0,1,.72.08c.35.05.71.13,1.08.22a5.33,5.33,0,0,1,1,.34c.28.13.42.28.42.44L46,8.64c0,.16.14.27.42.34a5.05,5.05,0,0,0,1.08.12l1.4,0a7.85,7.85,0,0,1,1.4.12,3.17,3.17,0,0,1,1.08.38.85.85,0,0,1,.42.78.87.87,0,0,1-.08.26c0,.12-.12.18-.2.18a.37.37,0,0,1-.22-.12,1.36,1.36,0,0,0-.74-.12l-.88,0-1.52.12c-.53.05-1,.11-1.46.18s-.69.15-.74.26a5.5,5.5,0,0,0-.1.94c0,.57-.08,1.33-.12,2.26s-.07,2-.1,3.22,0,2.49,0,3.82a14.21,14.21,0,0,0,.08,1.48,7.73,7.73,0,0,0,.24,1.3,2.83,2.83,0,0,0,.42.94.75.75,0,0,0,.62.36,1.34,1.34,0,0,0,1-.44,4.24,4.24,0,0,0,.8-1.2,12.17,12.17,0,0,0,.64-1.72c.18-.64.35-1.29.48-2a2.67,2.67,0,0,1,.28-.86.54.54,0,0,1,.48-.26.77.77,0,0,1,.5.18c.15.12.22.39.22.82a1.9,1.9,0,0,1,0,.52c-.08.48-.24,1.14-.46,2a14.57,14.57,0,0,1-.92,2.48,8.76,8.76,0,0,1-1.42,2.14,2.59,2.59,0,0,1-2,.92,3,3,0,0,1-1.88-.62,4.84,4.84,0,0,1-1.34-1.72,10.19,10.19,0,0,1-.82-2.6A17.24,17.24,0,0,1,42.24,20Z"/><path d="M66,22.48a6.12,6.12,0,0,1-.4,1.32,8.11,8.11,0,0,1-.82,1.46,5.2,5.2,0,0,1-1.16,1.18,2.43,2.43,0,0,1-1.46.48A2.86,2.86,0,0,1,60,26a4.3,4.3,0,0,1-1.1-2.6l-.56,1.48a7.65,7.65,0,0,1-.8,1.56,5.41,5.41,0,0,1-1.1,1.22,2.29,2.29,0,0,1-1.46.5,1.11,1.11,0,0,1-.36,0l-.26-.1-.32-.1a2.23,2.23,0,0,0-.5,0,2.29,2.29,0,0,1-1.62-.62,4.52,4.52,0,0,1-1.06-1.58,9,9,0,0,1-.58-2.1,13.73,13.73,0,0,1-.18-2.14,38.89,38.89,0,0,1,.26-4.56,17.22,17.22,0,0,1,.86-3.82,7.16,7.16,0,0,1,1.56-2.64,3.14,3.14,0,0,1,2.32-1,4.2,4.2,0,0,1,1.22.14,5.52,5.52,0,0,1,.78.32l.78.38a4.54,4.54,0,0,0,1.18.32,2.89,2.89,0,0,1,1.18,1.14,4.52,4.52,0,0,1,.44,1.42,10.24,10.24,0,0,1,.06,1.58,7.93,7.93,0,0,0,.08,1.62s.06.07.18.12l.42.18a1.34,1.34,0,0,1,.42.28.62.62,0,0,1,.18.46v.16a7,7,0,0,0-.48,1.84,17.7,17.7,0,0,0-.08,1.92c0,.37,0,.78.06,1.22a9.18,9.18,0,0,0,.2,1.24,2.5,2.5,0,0,0,.42,1,.85.85,0,0,0,.72.38,1.1,1.1,0,0,0,.86-.48,4.74,4.74,0,0,0,.64-1.1,11,11,0,0,0,.44-1.26,8.12,8.12,0,0,0,.22-1c0-.32.19-.48.4-.48a.5.5,0,0,1,.38.22,1.28,1.28,0,0,1,.18.78v.3A2.55,2.55,0,0,1,66,22.48ZM58.56,16a8.71,8.71,0,0,0-.08-1,5.56,5.56,0,0,0-.28-1.12,2.38,2.38,0,0,0-.6-.88,1.57,1.57,0,0,0-1.08-.36,2.12,2.12,0,0,0-1.82,1A8,8,0,0,0,53.6,16a14.22,14.22,0,0,0-.52,2.84c-.08,1-.12,1.74-.12,2.3s0,.94.06,1.54a12.5,12.5,0,0,0,.22,1.7,4.72,4.72,0,0,0,.46,1.36.89.89,0,0,0,.78.56,2,2,0,0,0,1.78-.9,6.87,6.87,0,0,0,.94-2.24,21.7,21.7,0,0,0,.46-2.88c.09-1,.18-2,.26-2.82a1.14,1.14,0,0,1,.36-.86c.18-.12.28-.21.28-.26Z"/><path d="M76,19.16a16.19,16.19,0,0,1-.3,3.18,9.13,9.13,0,0,1-.89,2.6,5.08,5.08,0,0,1-1.5,1.76,3.51,3.51,0,0,1-2.11.66,3.74,3.74,0,0,1-1.84-.42,1.52,1.52,0,0,1-.76-1.46.83.83,0,0,1,.3-.68.91.91,0,0,1,.54-.24.56.56,0,0,1,.46.18l.28.4a2.08,2.08,0,0,0,.32.4.79.79,0,0,0,.58.18,1.18,1.18,0,0,0,1.06-.64,5.52,5.52,0,0,0,.58-1.6A14.23,14.23,0,0,0,73,21.4c0-.75.06-1.44.06-2.08V17.48c0-.37,0-.82,0-1.34a9.78,9.78,0,0,0-.2-1.48,3.65,3.65,0,0,0-.5-1.2,1.06,1.06,0,0,0-.9-.5c-.56,0-1,.41-1.46,1.22a12.19,12.19,0,0,0-1,3.08,31,31,0,0,0-.58,4.12c-.12,1.51-.18,2.95-.18,4.34v3.56c0,.53,0,1,.08,1.4s.06.77.1,1.12.09.69.16,1,.15.71.26,1.14c0,.08.12.15.3.22a.38.38,0,0,1,.26.38.64.64,0,0,1-.22.5,1.73,1.73,0,0,1-.56.28,2.94,2.94,0,0,1-.74.12l-.72,0h-.56a3.54,3.54,0,0,1-1-.14.67.67,0,0,1-.48-.74V11.16A4.39,4.39,0,0,0,65,9.88c0-.11-.06-.21-.08-.3s-.06-.18-.08-.26.07-.12.22-.2a4.73,4.73,0,0,1,.5-.24,3.93,3.93,0,0,1,.54-.2l.3-.08A1.35,1.35,0,0,1,67.42,9a2.78,2.78,0,0,1,.38,1.72v5.56a9.81,9.81,0,0,0,.46-1.48A9.14,9.14,0,0,1,68.89,13,5.3,5.3,0,0,1,70,11.46a2.39,2.39,0,0,1,1.75-.66,2.77,2.77,0,0,1,2.09.86,6.64,6.64,0,0,1,1.31,2.08,10.94,10.94,0,0,1,.7,2.6A17.86,17.86,0,0,1,76,18.8Z"/><path d="M85.68,25.68a1.21,1.21,0,0,1-.34.84,3.72,3.72,0,0,1-.84.64,4.2,4.2,0,0,1-1,.42,3.89,3.89,0,0,1-.9.14,9.2,9.2,0,0,1-1.5-.14A3,3,0,0,1,79.68,27a3.75,3.75,0,0,1-1.06-1.66A12.82,12.82,0,0,1,78,22.62a34.6,34.6,0,0,1-.3-3.52c-.06-1.29-.08-2.65-.08-4.06,0-.59,0-1.24.06-2s.08-1.47.14-2.26.12-1.57.2-2.36.16-1.54.24-2.26c.08-.51.17-1,.28-1.64s.22-1.15.34-1.68a11.29,11.29,0,0,1,.42-1.44A2.56,2.56,0,0,1,79.8.52,1.62,1.62,0,0,1,80.66.1a5.09,5.09,0,0,1,1-.1,2.21,2.21,0,0,1,1.48.48A3.06,3.06,0,0,1,84,1.78a7.69,7.69,0,0,1,.4,1.88c.06.71.1,1.46.1,2.26,0,1.23,0,2.55-.12,4a37.28,37.28,0,0,1-.5,4.3,29.38,29.38,0,0,1-1.08,4.2,15.42,15.42,0,0,1-1.86,3.72c0,.37.07.81.14,1.3a7.33,7.33,0,0,0,.3,1.38,3.39,3.39,0,0,0,.52,1.08,1,1,0,0,0,.84.44,1.18,1.18,0,0,0,.76-.22,3.38,3.38,0,0,0,.5-.5,4.36,4.36,0,0,1,.44-.5.76.76,0,0,1,.58-.22.59.59,0,0,1,.54.24A1.13,1.13,0,0,1,85.68,25.68Zm-3-18.8c0-.27,0-.59,0-1a10,10,0,0,0-.12-1.1,5.16,5.16,0,0,0-.26-.92c-.11-.25-.26-.38-.44-.38s-.48.37-.64,1.12a22.55,22.55,0,0,0-.38,2.94c-.1,1.21-.16,2.59-.2,4.12s-.06,3.09-.06,4.66v1.42a8.38,8.38,0,0,0,.08,1.3A23.22,23.22,0,0,0,82.32,13,50.29,50.29,0,0,0,82.68,6.88Z"/><path d="M101.36,22.48a6.12,6.12,0,0,1-.4,1.32,8.11,8.11,0,0,1-.82,1.46A5.2,5.2,0,0,1,99,26.44a2.43,2.43,0,0,1-1.46.48,2.86,2.86,0,0,1-2.1-.92,4.3,4.3,0,0,1-1.1-2.6l-.56,1.48a8.19,8.19,0,0,1-.8,1.56,5.41,5.41,0,0,1-1.1,1.22,2.29,2.29,0,0,1-1.46.5,1.11,1.11,0,0,1-.36,0l-.26-.1-.32-.1a2.23,2.23,0,0,0-.5,0,2.29,2.29,0,0,1-1.62-.62,4.39,4.39,0,0,1-1.06-1.58,9,9,0,0,1-.58-2.1,13.73,13.73,0,0,1-.18-2.14,36.84,36.84,0,0,1,.26-4.56,17.22,17.22,0,0,1,.86-3.82,7.16,7.16,0,0,1,1.56-2.64,3.14,3.14,0,0,1,2.32-1,4.2,4.2,0,0,1,1.22.14,5.52,5.52,0,0,1,.78.32l.78.38a4.54,4.54,0,0,0,1.18.32,2.89,2.89,0,0,1,1.18,1.14,4.52,4.52,0,0,1,.44,1.42,10.24,10.24,0,0,1,.06,1.58,7.93,7.93,0,0,0,.08,1.62s.06.07.18.12l.42.18a1.34,1.34,0,0,1,.42.28.62.62,0,0,1,.18.46v.16A7,7,0,0,0,97,19.4a17.7,17.7,0,0,0-.08,1.92c0,.37,0,.78.06,1.22a7.83,7.83,0,0,0,.2,1.24,2.5,2.5,0,0,0,.42,1,.85.85,0,0,0,.72.38,1.1,1.1,0,0,0,.86-.48,5.12,5.12,0,0,0,.64-1.1,11,11,0,0,0,.44-1.26,8.12,8.12,0,0,0,.22-1c0-.32.18-.48.4-.48a.5.5,0,0,1,.38.22,1.28,1.28,0,0,1,.18.78v.3A2.55,2.55,0,0,1,101.36,22.48ZM94,16a8.71,8.71,0,0,0-.08-1,5.56,5.56,0,0,0-.28-1.12A2.38,2.38,0,0,0,93,13a1.57,1.57,0,0,0-1.08-.36,2.11,2.11,0,0,0-1.82,1A8,8,0,0,0,89,16a14.22,14.22,0,0,0-.52,2.84c-.08,1-.12,1.74-.12,2.3s0,.94.06,1.54a12.5,12.5,0,0,0,.22,1.7,4.72,4.72,0,0,0,.46,1.36.89.89,0,0,0,.78.56,2,2,0,0,0,1.78-.9,6.87,6.87,0,0,0,.94-2.24,21.7,21.7,0,0,0,.46-2.88c.09-1,.18-2,.26-2.82a1.14,1.14,0,0,1,.36-.86c.18-.12.28-.21.28-.26Z"/><path d="M106.28,18.12a7.84,7.84,0,0,0-1,1.86,18,18,0,0,0-.66,2.12c-.19.73-.34,1.47-.46,2.2s-.25,1.43-.38,2.1c-.06.16-.26.27-.62.32a6.73,6.73,0,0,1-.78.08,7.43,7.43,0,0,1-1.18-.08,1.07,1.07,0,0,1-.7-.38,2.15,2.15,0,0,1-.36-.92,14.52,14.52,0,0,1-.2-1.66l.52-11.88c0-.35.18-.52.56-.52a3.69,3.69,0,0,1,.56.06,6.35,6.35,0,0,1,.76.18,2.84,2.84,0,0,1,.68.3.52.52,0,0,1,.28.42v8.12a1.81,1.81,0,0,0,.12-.32l.68-1.78a19.52,19.52,0,0,1,.88-2,9.25,9.25,0,0,1,1-1.64,1.47,1.47,0,0,1,1.1-.68,1.59,1.59,0,0,1,1.1.34,2.29,2.29,0,0,1,.58.86,4.06,4.06,0,0,1,.24,1.12c0,.4,0,.79,0,1.16s0,.71-.08,1.32-.08,1.53-.08,2.76a7.8,7.8,0,0,0,.2,1.88c.13.56.4.84.8.84a1.06,1.06,0,0,0,.8-.4,4.56,4.56,0,0,0,.66-1,8.51,8.51,0,0,0,.5-1.28,6.35,6.35,0,0,0,.24-1.28c0-.51.22-.76.6-.76a.48.48,0,0,1,.48.24,1.25,1.25,0,0,1,.12.56v.08a9.62,9.62,0,0,1-.3,1.8,8.14,8.14,0,0,1-.76,1.88A4.87,4.87,0,0,1,111,25.6a3.19,3.19,0,0,1-2,.6,2.17,2.17,0,0,1-2.3-1.3,11.17,11.17,0,0,1-.5-3.86Z"/><path d="M124.12,20.68a8.12,8.12,0,0,1-.36,2.24,7.67,7.67,0,0,1-1.12,2.3A6.63,6.63,0,0,1,120.7,27a5.33,5.33,0,0,1-2.82.72,5.72,5.72,0,0,1-2.64-.56,5,5,0,0,1-1.78-1.52,6,6,0,0,1-1-2.26,12.18,12.18,0,0,1-.3-2.74,16,16,0,0,1,.32-3.08,12.81,12.81,0,0,1,1-3.14A7.71,7.71,0,0,1,115.2,12a3.54,3.54,0,0,1,2.52-1,3.18,3.18,0,0,1,1.36.3,4,4,0,0,1,1.12.78A3.64,3.64,0,0,1,121,13.2a4.11,4.11,0,0,1,.32,1.32l0,.56a8,8,0,0,1-.32,2.1,8.56,8.56,0,0,1-.92,2.12,6,6,0,0,1-1.48,1.64,3.27,3.27,0,0,1-2,.66,3.31,3.31,0,0,1-.5,0,5,5,0,0,1-.58-.12V22.6a2.68,2.68,0,0,0,.18.8,3.87,3.87,0,0,0,.54,1,3.46,3.46,0,0,0,.94.88,2.55,2.55,0,0,0,1.42.38,3.54,3.54,0,0,0,1.9-.46A4,4,0,0,0,121.72,24a6,6,0,0,0,.74-1.62q.26-.9.42-1.74a2.81,2.81,0,0,1,.24-.76.43.43,0,0,1,.4-.2c.4,0,.6.23.6.68Zm-4.72-6.2a1.54,1.54,0,0,0-.18-.68.67.67,0,0,0-.66-.36,1.48,1.48,0,0,0-1.24.76,7.06,7.06,0,0,0-.86,1.74,11.2,11.2,0,0,0-.5,1.88A8.16,8.16,0,0,0,115.8,19v.12a2.29,2.29,0,0,0,.06.58c0,.15.18.22.42.22h.2a1.81,1.81,0,0,0,1.36-.6,4.76,4.76,0,0,0,.9-1.44,9.4,9.4,0,0,0,.5-1.72,9.2,9.2,0,0,0,.16-1.44Z"/><path d="M134.32,21.2a11.21,11.21,0,0,1-.18,1.34,12,12,0,0,1-.64,2.24,7.33,7.33,0,0,1-1.24,2.1,2.67,2.67,0,0,1-4,0,6.06,6.06,0,0,1-1.16-2.16,12,12,0,0,1-.52-2.64c-.08-.92-.12-1.69-.12-2.3a18.75,18.75,0,0,1,.12-2.1c.08-.71.13-1.41.16-2.1a.38.38,0,0,0-.32-.4,2.76,2.76,0,0,0-.6-.08,1,1,0,0,0-.6.12.53.53,0,0,0-.16.28l-.16,1.28c-.11.85-.22,1.67-.34,2.46s-.26,1.48-.4,2.08a6,6,0,0,1-.52,1.44c-.2.36-.44.54-.7.54h0a.61.61,0,0,1-.3-.08c-.1,0-.14-.19-.14-.4a1.8,1.8,0,0,1,.08-.48,19.55,19.55,0,0,0,.4-2.32c0-.61.09-1.16.12-1.64v-.28a4.36,4.36,0,0,1,0-.48c0-.19,0-.41,0-.68V15a7.88,7.88,0,0,0-.08-1l-.12-2.36a.58.58,0,0,1,.2-.44,2,2,0,0,1,.52-.36,2.62,2.62,0,0,1,.68-.24,3.19,3.19,0,0,1,.64-.08c.45,0,.68.29.68.88v.2l0,.88v.24c0,.19,0,.3.12.34a2.24,2.24,0,0,0,.48.14h.12c.21,0,.56.05,1,.08a14.09,14.09,0,0,1,1.44.16,4.79,4.79,0,0,1,1.26.38.81.81,0,0,1,.54.74,2.1,2.1,0,0,1-.08.46c-.06.2-.12.4-.2.6s-.15.38-.2.54a1.07,1.07,0,0,0-.08.32,22.73,22.73,0,0,0-.72,5.76c0,.16,0,.45,0,.88a10.32,10.32,0,0,0,.16,1.32,5,5,0,0,0,.36,1.2c.16.35.36.52.6.52a1.34,1.34,0,0,0,1.08-.74,8.61,8.61,0,0,0,.84-1.72,15.44,15.44,0,0,0,.58-2c.14-.67.24-1.16.3-1.48a.75.75,0,0,1,.26-.54.66.66,0,0,1,.34-.1c.37,0,.56.24.56.72,0,0,0,.19,0,.42S134.34,21.09,134.32,21.2Z"/></g></g></svg>