<svg xmlns="http://www.w3.org/2000/svg" fill="#fff" viewBox="0 0 43.98 10.64"><g id="Layer_2" data-name="Layer 2"><g id="Layer_1-2" data-name="Layer 1"><path d="M5,.88s0,0,0,.06a.51.51,0,0,0,0,.16A1.2,1.2,0,0,0,5,1.43v4a5.69,5.69,0,0,1-.12,1.18,3,3,0,0,1-.41,1,2.11,2.11,0,0,1-.81.69,2.76,2.76,0,0,1-1.3.26H2.18a2.93,2.93,0,0,1-1.11-.18,1.88,1.88,0,0,1-.66-.48,1.59,1.59,0,0,1-.33-.63A3,3,0,0,1,0,6.59a1.7,1.7,0,0,1,.07-.51,1.13,1.13,0,0,1,.19-.43.86.86,0,0,1,.3-.3A.73.73,0,0,1,1,5.23c.15,0,.24,0,.28.12a.46.46,0,0,1,.06.23A.84.84,0,0,1,1.2,6a1.82,1.82,0,0,1-.23.3,2.91,2.91,0,0,0-.24.27.5.5,0,0,0-.11.32A.91.91,0,0,0,1,7.74,1.67,1.67,0,0,0,2,8a1.83,1.83,0,0,0,.87-.2,2,2,0,0,0,.62-.52,2.05,2.05,0,0,0,.37-.68A2.18,2.18,0,0,0,4,5.9l-.18,0A1.4,1.4,0,0,1,3,5.72a1.81,1.81,0,0,1-.53-.5,2.29,2.29,0,0,1-.31-.65,2.24,2.24,0,0,1-.1-.65V3.5A2.77,2.77,0,0,1,2.14,3a6,6,0,0,1,.16-.64,5.11,5.11,0,0,1,.27-.64,3.05,3.05,0,0,1,.33-.57A1.71,1.71,0,0,1,3.29.71.63.63,0,0,1,3.71.55a.5.5,0,0,1,.19,0l.84.06A.44.44,0,0,1,4.9.71.19.19,0,0,1,5,.88ZM4,2.32a.78.78,0,0,1,0-.18,1.12,1.12,0,0,0,0-.2.57.57,0,0,0-.08-.28.3.3,0,0,0-.28-.12.52.52,0,0,0-.43.21A1.69,1.69,0,0,0,3,2.27a4.26,4.26,0,0,0-.13.62c0,.22,0,.39,0,.53s0,.25,0,.45A2.85,2.85,0,0,0,3,4.45,1.73,1.73,0,0,0,3.2,5a.52.52,0,0,0,.44.21h.13a.6.6,0,0,0,.18,0Z"/><path d="M7.73,5.44a2.42,2.42,0,0,0-.3.55c-.07.21-.14.42-.19.64a5.18,5.18,0,0,0-.14.66L7,7.92S6.91,8,6.8,8L6.56,8,6.21,8A.37.37,0,0,1,6,7.9a.69.69,0,0,1-.11-.27c0-.13,0-.29-.06-.5L6,3.56c0-.1,0-.15.17-.15a.53.53,0,0,1,.16,0l.23,0a.67.67,0,0,1,.21.09.17.17,0,0,1,.08.13V6.13a.41.41,0,0,0,0-.09c0-.15.12-.33.2-.54s.17-.41.26-.6a2.87,2.87,0,0,1,.31-.5A.46.46,0,0,1,8,4.2a.48.48,0,0,1,.33.1.65.65,0,0,1,.17.26,1.21,1.21,0,0,1,.08.34c0,.12,0,.23,0,.34s0,.22,0,.4,0,.46,0,.83A2.4,2.4,0,0,0,8.58,7c0,.17.12.25.24.25a.31.31,0,0,0,.24-.12,1.42,1.42,0,0,0,.2-.3,2.15,2.15,0,0,0,.15-.38,1.92,1.92,0,0,0,.07-.38c0-.16.07-.23.18-.23s.12,0,.14.07a.31.31,0,0,1,0,.17v0a3,3,0,0,1-.09.54,2.35,2.35,0,0,1-.23.57,1.49,1.49,0,0,1-.39.44.94.94,0,0,1-.59.18.65.65,0,0,1-.69-.39A3.42,3.42,0,0,1,7.7,6.31Z"/><path d="M12.41,7.31a.55.55,0,0,1-.19.44,1.24,1.24,0,0,1-.44.23,2.21,2.21,0,0,1-.49.09l-.36,0a2.25,2.25,0,0,1-.41,0A2.4,2.4,0,0,1,10,7.94a1.18,1.18,0,0,1-.4-.22.46.46,0,0,1-.16-.36.2.2,0,0,1,.1-.19.39.39,0,0,1,.2,0,.45.45,0,0,1,.26.09l.26.21a2.36,2.36,0,0,0,.31.2.8.8,0,0,0,.38.1.85.85,0,0,0,.26-.07.23.23,0,0,0,.16-.23.46.46,0,0,0-.14-.33,2.68,2.68,0,0,0-.34-.32l-.45-.35A4.19,4.19,0,0,1,10,6a1.93,1.93,0,0,1-.35-.46A1.15,1.15,0,0,1,9.54,5a1,1,0,0,1,.27-.71,2,2,0,0,1,.64-.46,3.28,3.28,0,0,1,.75-.24,3.15,3.15,0,0,1,.6-.07,1.14,1.14,0,0,1,.4.08.33.33,0,0,1,.21.33,1,1,0,0,1,0,.21,1,1,0,0,1-.1.27.76.76,0,0,1-.17.23.39.39,0,0,1-.28.1.12.12,0,0,1-.09,0l-.11-.09-.13-.1a.24.24,0,0,0-.15,0,.68.68,0,0,0-.59.24.94.94,0,0,0-.16.53.72.72,0,0,0,.28.5c.19.18.39.35.62.53s.44.35.63.52A.74.74,0,0,1,12.41,7.31Z"/><path d="M12.67,5.88c0-.41,0-.82,0-1.25s0-.81,0-1.17c0-.07-.07-.11-.2-.14l-.43-.07a1.8,1.8,0,0,1-.43-.11.26.26,0,0,1-.19-.26c0-.1.1-.16.31-.18s.52,0,.92,0c0,0,.06-.05.07-.15a3.36,3.36,0,0,0,0-.36c0-.15,0-.31,0-.48s0-.32,0-.47a2.78,2.78,0,0,1,.05-.37c0-.09,0-.14.07-.14l.22,0,.32.07a1.75,1.75,0,0,1,.3.1c.08,0,.12.08.12.13l-.13,1.56c0,.05,0,.08.13.1a1.32,1.32,0,0,0,.32,0h.42a2.77,2.77,0,0,1,.42,0,1,1,0,0,1,.33.12.26.26,0,0,1,.12.23.45.45,0,0,1,0,.08s0,0-.06,0l-.07,0s-.1,0-.22,0h-.26l-.46,0-.44,0c-.13,0-.2.05-.22.08a1.4,1.4,0,0,0,0,.28c0,.17,0,.4,0,.68s0,.6,0,1,0,.74,0,1.14a3.4,3.4,0,0,0,0,.45,2.26,2.26,0,0,0,.07.39.91.91,0,0,0,.12.28.26.26,0,0,0,.19.11.42.42,0,0,0,.29-.14,1,1,0,0,0,.24-.36,4.23,4.23,0,0,0,.19-.51A5.63,5.63,0,0,0,15,6.06a1.07,1.07,0,0,1,.09-.26.16.16,0,0,1,.14-.08.2.2,0,0,1,.15.06c.05,0,.07.12.07.24s0,.14,0,.16-.07.34-.14.59a4.25,4.25,0,0,1-.28.75,2.63,2.63,0,0,1-.42.64.81.81,0,0,1-.59.28.93.93,0,0,1-.57-.19,1.44,1.44,0,0,1-.4-.52A2.75,2.75,0,0,1,12.76,7a4.89,4.89,0,0,1-.09-1Z"/><path d="M19.79,6.74a2,2,0,0,1-.12.4,2.76,2.76,0,0,1-.25.44,1.3,1.3,0,0,1-.35.35.68.68,0,0,1-.43.15A.87.87,0,0,1,18,7.8,1.28,1.28,0,0,1,17.68,7l-.17.44a3,3,0,0,1-.24.47,1.71,1.71,0,0,1-.33.37.69.69,0,0,1-.44.15h-.11l-.08,0a.14.14,0,0,0-.09,0l-.15,0a.71.71,0,0,1-.49-.18,1.39,1.39,0,0,1-.32-.48,2.9,2.9,0,0,1-.17-.63A3.59,3.59,0,0,1,15,6.43a12.07,12.07,0,0,1,.07-1.37,5.64,5.64,0,0,1,.26-1.14,2.15,2.15,0,0,1,.47-.79.92.92,0,0,1,.7-.3,1.49,1.49,0,0,1,.36,0l.24.1.23.11a1.14,1.14,0,0,0,.35.1.91.91,0,0,1,.36.34,1.26,1.26,0,0,1,.13.43,2.43,2.43,0,0,1,0,.47,2.64,2.64,0,0,0,0,.49l.06,0,.12.06a.57.57,0,0,1,.13.08.22.22,0,0,1,.05.14v0a1.93,1.93,0,0,0-.14.55,4.73,4.73,0,0,0,0,.58c0,.11,0,.23,0,.36a2,2,0,0,0,.06.37.71.71,0,0,0,.13.29.25.25,0,0,0,.21.12.31.31,0,0,0,.26-.15,1.06,1.06,0,0,0,.19-.33,2.46,2.46,0,0,0,.14-.38c0-.12.05-.22.06-.28s.06-.15.12-.15a.15.15,0,0,1,.12.07.41.41,0,0,1,.05.23v.09A.38.38,0,0,1,19.79,6.74ZM17.57,4.8a1.89,1.89,0,0,0,0-.31,1.3,1.3,0,0,0-.08-.34.68.68,0,0,0-.18-.26A.48.48,0,0,0,17,3.78a.63.63,0,0,0-.55.31,2.39,2.39,0,0,0-.33.72,4.73,4.73,0,0,0-.16.85q0,.44,0,.69a3.94,3.94,0,0,0,0,.46,4,4,0,0,0,.06.51,1.41,1.41,0,0,0,.14.41.27.27,0,0,0,.23.17.62.62,0,0,0,.54-.27A2,2,0,0,0,17.16,7a6.72,6.72,0,0,0,.14-.86c0-.31.05-.59.08-.85a.33.33,0,0,1,.1-.25c.06,0,.09-.07.09-.08Z"/><path d="M22.81,5.75a4.86,4.86,0,0,1-.09,1,3.1,3.1,0,0,1-.26.78A1.49,1.49,0,0,1,22,8a1.05,1.05,0,0,1-.63.2,1.07,1.07,0,0,1-.55-.13.46.46,0,0,1-.23-.44.25.25,0,0,1,.09-.2.27.27,0,0,1,.16-.07.18.18,0,0,1,.14,0l.09.12a.38.38,0,0,0,.09.12.24.24,0,0,0,.18.06.35.35,0,0,0,.31-.2A1.34,1.34,0,0,0,21.83,7a5.5,5.5,0,0,0,.08-.62c0-.22,0-.43,0-.62V5.24c0-.11,0-.24,0-.4a3.11,3.11,0,0,0-.06-.44A1,1,0,0,0,21.7,4a.32.32,0,0,0-.27-.15c-.17,0-.31.12-.44.36a4.24,4.24,0,0,0-.3.93,10.06,10.06,0,0,0-.18,1.23c0,.46-.05.89-.05,1.31V8.78c0,.16,0,.3,0,.42s0,.24,0,.34,0,.21,0,.31.05.21.08.34a.17.17,0,0,0,.09.06.12.12,0,0,1,.08.12.18.18,0,0,1-.07.15.54.54,0,0,1-.17.08l-.22,0H20a1,1,0,0,1-.29,0c-.1,0-.14-.1-.14-.22v-7A1.37,1.37,0,0,0,19.49,3l0-.09a.19.19,0,0,0,0-.07s0,0,.07-.06l.15-.08.16-.06.09,0a.41.41,0,0,1,.32.13.89.89,0,0,1,.11.52V4.9a3.52,3.52,0,0,0,.14-.45,2.32,2.32,0,0,1,.19-.54A1.43,1.43,0,0,1,21,3.44a.72.72,0,0,1,.52-.2.83.83,0,0,1,.63.26,2,2,0,0,1,.39.62,3.46,3.46,0,0,1,.21.78,5.23,5.23,0,0,1,.06.74Z"/><path d="M25.7,7.7a.37.37,0,0,1-.1.26,1.26,1.26,0,0,1-.25.19,1.17,1.17,0,0,1-.31.12,1.12,1.12,0,0,1-.27.05,2.48,2.48,0,0,1-.45-.05.83.83,0,0,1-.42-.17,1.14,1.14,0,0,1-.32-.5,4.85,4.85,0,0,1-.19-.81c0-.32-.07-.67-.09-1.06s0-.79,0-1.22c0-.17,0-.37,0-.59s0-.44,0-.67,0-.48.06-.71.05-.46.07-.68.05-.32.09-.49.06-.35.1-.51a3.75,3.75,0,0,1,.12-.43.66.66,0,0,1,.16-.27A.43.43,0,0,1,24.2,0l.29,0a.71.71,0,0,1,.45.14,1,1,0,0,1,.25.39,2.39,2.39,0,0,1,.12.57c0,.21,0,.44,0,.68s0,.76,0,1.19-.08.86-.15,1.29a9,9,0,0,1-.33,1.26,4.35,4.35,0,0,1-.56,1.12c0,.11,0,.24.05.39a2.71,2.71,0,0,0,.09.41,1.06,1.06,0,0,0,.15.32.31.31,0,0,0,.25.14A.37.37,0,0,0,25,7.83a.54.54,0,0,0,.15-.15,1,1,0,0,1,.14-.15.24.24,0,0,1,.17-.07.17.17,0,0,1,.16.08A.27.27,0,0,1,25.7,7.7Zm-.9-5.64V1.78a3,3,0,0,0,0-.33,1.58,1.58,0,0,0-.08-.28c0-.08-.07-.11-.13-.11s-.14.11-.19.33a5.66,5.66,0,0,0-.11.88c0,.37-.05.78-.06,1.24s0,.93,0,1.4v.42a2.3,2.3,0,0,0,0,.39,7,7,0,0,0,.51-1.83A15.54,15.54,0,0,0,24.8,2.06Z"/><path d="M30.41,6.74a2,2,0,0,1-.12.4,2.76,2.76,0,0,1-.25.44,1.3,1.3,0,0,1-.35.35.68.68,0,0,1-.43.15.87.87,0,0,1-.63-.28A1.28,1.28,0,0,1,28.3,7l-.17.44a3,3,0,0,1-.24.47,1.71,1.71,0,0,1-.33.37.69.69,0,0,1-.44.15H27l-.08,0a.14.14,0,0,0-.09,0l-.15,0a.71.71,0,0,1-.49-.18,1.39,1.39,0,0,1-.32-.48,2.9,2.9,0,0,1-.17-.63,3.59,3.59,0,0,1-.05-.64,12.07,12.07,0,0,1,.07-1.37A5.64,5.64,0,0,1,26,3.92a2.15,2.15,0,0,1,.47-.79.92.92,0,0,1,.7-.3,1.49,1.49,0,0,1,.36,0l.24.1.23.11a1.14,1.14,0,0,0,.35.1.91.91,0,0,1,.36.34,1.26,1.26,0,0,1,.13.43,2.43,2.43,0,0,1,0,.47,2.64,2.64,0,0,0,0,.49l.06,0,.12.06a.57.57,0,0,1,.13.08.22.22,0,0,1,.05.14v0a1.93,1.93,0,0,0-.14.55,4.73,4.73,0,0,0,0,.58c0,.11,0,.23,0,.36a2,2,0,0,0,.06.37.71.71,0,0,0,.13.29.25.25,0,0,0,.21.12.31.31,0,0,0,.26-.15,1.06,1.06,0,0,0,.19-.33,2.46,2.46,0,0,0,.14-.38c0-.12.05-.22.06-.28s.06-.15.12-.15a.15.15,0,0,1,.12.07.41.41,0,0,1,.05.23v.09A.38.38,0,0,1,30.41,6.74ZM28.19,4.8a1.89,1.89,0,0,0,0-.31,1.3,1.3,0,0,0-.08-.34.68.68,0,0,0-.18-.26.48.48,0,0,0-.32-.11.63.63,0,0,0-.55.31,2.39,2.39,0,0,0-.33.72,4.73,4.73,0,0,0-.16.85q0,.44,0,.69a3.94,3.94,0,0,0,0,.46,4,4,0,0,0,.06.51,1.41,1.41,0,0,0,.14.41A.27.27,0,0,0,27,7.9a.62.62,0,0,0,.54-.27A2,2,0,0,0,27.78,7a6.72,6.72,0,0,0,.14-.86c0-.31,0-.59.08-.85A.33.33,0,0,1,28.1,5c.06,0,.09-.07.09-.08Z"/><path d="M31.88,5.44a2.39,2.39,0,0,0-.29.55c-.08.21-.14.42-.2.64s-.1.44-.14.66-.07.43-.11.63c0,0-.08.08-.19.1l-.23,0-.36,0a.37.37,0,0,1-.21-.12.69.69,0,0,1-.1-.27,2.84,2.84,0,0,1-.06-.5l.15-3.57c0-.1.06-.15.17-.15a.59.59,0,0,1,.17,0l.23,0a.61.61,0,0,1,.2.09c.06,0,.09.08.09.13V6.13L31,6c.06-.15.12-.33.2-.54a5.46,5.46,0,0,1,.27-.6,2.87,2.87,0,0,1,.31-.5.43.43,0,0,1,.32-.2.45.45,0,0,1,.33.1.68.68,0,0,1,.18.26,1.21,1.21,0,0,1,.07.34c0,.12,0,.23,0,.34s0,.22,0,.4,0,.46,0,.83a2.4,2.4,0,0,0,.06.56c0,.17.12.25.25.25a.31.31,0,0,0,.23-.12,1.12,1.12,0,0,0,.2-.3,2.15,2.15,0,0,0,.15-.38,1.4,1.4,0,0,0,.07-.38c0-.16.07-.23.18-.23s.13,0,.15.07a.43.43,0,0,1,0,.17v0a2.4,2.4,0,0,1-.1.54,2.32,2.32,0,0,1-.22.57,1.49,1.49,0,0,1-.39.44,1,1,0,0,1-.59.18A.65.65,0,0,1,32,7.47a3.42,3.42,0,0,1-.15-1.16Z"/><path d="M35.54,5.44a2.39,2.39,0,0,0-.29.55c-.08.21-.14.42-.2.64s-.1.44-.14.66-.07.43-.11.63c0,0-.08.08-.19.1l-.23,0L34,8a.37.37,0,0,1-.21-.12.69.69,0,0,1-.1-.27,2.84,2.84,0,0,1-.06-.5l.15-3.57c0-.1.06-.15.17-.15a.59.59,0,0,1,.17,0l.23,0a.53.53,0,0,1,.2.09c.06,0,.09.08.09.13V6.13l0-.09c.06-.15.12-.33.21-.54a5.42,5.42,0,0,1,.26-.6,2.87,2.87,0,0,1,.31-.5.43.43,0,0,1,.32-.2.45.45,0,0,1,.33.1.68.68,0,0,1,.18.26,1.21,1.21,0,0,1,.07.34c0,.12,0,.23,0,.34a3.44,3.44,0,0,1,0,.4c0,.18,0,.46,0,.83A2,2,0,0,0,36.4,7c0,.17.12.25.24.25a.35.35,0,0,0,.24-.12,1.41,1.41,0,0,0,.19-.3,2.15,2.15,0,0,0,.15-.38,1.4,1.4,0,0,0,.07-.38c0-.16.07-.23.19-.23s.12,0,.14.07a.43.43,0,0,1,0,.17v0a2.4,2.4,0,0,1-.1.54,2.32,2.32,0,0,1-.22.57,1.49,1.49,0,0,1-.39.44,1,1,0,0,1-.59.18.65.65,0,0,1-.69-.39,3.42,3.42,0,0,1-.15-1.16Z"/><path d="M40.9,6.2a2.59,2.59,0,0,1-.11.68,2.46,2.46,0,0,1-.34.69,2,2,0,0,1-.58.53,1.65,1.65,0,0,1-.85.22,1.74,1.74,0,0,1-.79-.17,1.56,1.56,0,0,1-.53-.46A1.83,1.83,0,0,1,37.4,7a3.62,3.62,0,0,1-.09-.82,5.19,5.19,0,0,1,.09-.92,4.5,4.5,0,0,1,.3-.94,2.39,2.39,0,0,1,.52-.74A1.09,1.09,0,0,1,39,3.3a.9.9,0,0,1,.4.09,1.36,1.36,0,0,1,.34.23A1.13,1.13,0,0,1,40,4a1.11,1.11,0,0,1,.09.4l0,.16a2.63,2.63,0,0,1-.38,1.27,1.6,1.6,0,0,1-.44.49,1,1,0,0,1-.6.2h-.15l-.17,0v.35a.64.64,0,0,0,0,.24,1.53,1.53,0,0,0,.16.31,1.17,1.17,0,0,0,.28.26.75.75,0,0,0,.43.11,1.09,1.09,0,0,0,.57-.13,1.27,1.27,0,0,0,.37-.36,1.76,1.76,0,0,0,.22-.48c.05-.18.09-.36.12-.53A.73.73,0,0,1,40.6,6a.12.12,0,0,1,.12-.06c.12,0,.18.06.18.2ZM39.48,4.34a.53.53,0,0,0,0-.2.22.22,0,0,0-.2-.11.44.44,0,0,0-.37.23,2.11,2.11,0,0,0-.26.52,3.45,3.45,0,0,0-.15.57,3.05,3.05,0,0,0-.05.35v0a.72.72,0,0,0,0,.17s0,.07.12.07h.06A.54.54,0,0,0,39,5.8a1.48,1.48,0,0,0,.27-.44,2.29,2.29,0,0,0,.15-.51,2.83,2.83,0,0,0,0-.43Z"/><path d="M44,6.36a2.9,2.9,0,0,1-.06.4,3.1,3.1,0,0,1-.19.67,2.18,2.18,0,0,1-.37.63.75.75,0,0,1-.6.28.76.76,0,0,1-.61-.27,1.93,1.93,0,0,1-.35-.65,3.35,3.35,0,0,1-.15-.79,6.51,6.51,0,0,1,0-.69,4.44,4.44,0,0,1,0-.63c0-.21,0-.42,0-.63a.12.12,0,0,0-.09-.12.55.55,0,0,0-.18,0,.31.31,0,0,0-.18,0,.16.16,0,0,0,0,.09L41.12,5c0,.26-.06.5-.1.74s-.08.44-.12.62a1.52,1.52,0,0,1-.15.43c-.06.11-.14.17-.21.17h0a.16.16,0,0,1-.09,0s0,0,0-.12a.5.5,0,0,1,0-.14,6.88,6.88,0,0,0,.12-.7c0-.18,0-.35,0-.49V5.44a.86.86,0,0,1,0-.15V4.5a1.67,1.67,0,0,0,0-.31l0-.71a.18.18,0,0,1,.06-.13.5.5,0,0,1,.16-.11.68.68,0,0,1,.2-.07l.2,0c.13,0,.2.09.2.27V3.8a.14.14,0,0,0,0,.11l.15,0h0l.31,0,.44,0a1.41,1.41,0,0,1,.38.11.27.27,0,0,1,.16.23.45.45,0,0,1,0,.13.64.64,0,0,1-.06.18l-.06.17,0,.09a7,7,0,0,0-.22,1.73s0,.14,0,.26a2.85,2.85,0,0,0,0,.4,1.53,1.53,0,0,0,.11.36c0,.1.11.16.18.16a.42.42,0,0,0,.33-.23,3.47,3.47,0,0,0,.25-.51,4.5,4.5,0,0,0,.17-.6l.09-.44c0-.09,0-.14.08-.16l.1,0c.11,0,.17.07.17.21a.85.85,0,0,1,0,.13C44,6.28,44,6.33,44,6.36Z"/></g></g></svg>